<?xml version="1.0" standalone="no"?>
<!DOCTYPE svg PUBLIC "-//W3C//DTD SVG 20010904//EN"
 "http://www.w3.org/TR/2001/REC-SVG-20010904/DTD/svg10.dtd">
<svg version="1.0" xmlns="http://www.w3.org/2000/svg"
 width="384.000000pt" height="384.000000pt" viewBox="0 0 384.000000 384.000000"
 preserveAspectRatio="xMidYMid meet">
<metadata>
Created by potrace 1.11, written by Peter Selinger 2001-2013
</metadata>
<g transform="translate(0.000000,384.000000) scale(0.100000,-0.100000)"
fill="#000000" stroke="none">
<path d="M1650 3511 c-51 -16 -106 -51 -155 -98 l-50 -48 -432 -5 c-418 -5
-432 -6 -460 -26 -98 -73 -98 -195 0 -268 l28 -21 1339 0 1339 0 28 21 c54 40
75 83 71 142 -5 56 -25 91 -72 126 -27 20 -41 21 -457 24 l-430 3 -49 49 c-27
27 -73 62 -102 77 l-53 28 -260 2 c-143 0 -271 -2 -285 -6z"/>
<path d="M706 2658 c9 -89 13 -126 30 -263 3 -22 7 -58 9 -80 10 -94 16 -152
20 -175 2 -14 6 -50 10 -80 3 -30 7 -69 10 -86 2 -17 7 -59 10 -93 4 -34 8
-70 10 -79 1 -9 6 -51 10 -92 4 -41 9 -83 10 -92 2 -9 6 -43 10 -75 13 -125
23 -212 30 -263 2 -14 6 -56 10 -93 3 -37 8 -77 10 -87 2 -11 7 -52 10 -92 3
-39 8 -74 9 -77 2 -3 7 -40 10 -81 4 -41 9 -88 11 -105 2 -16 7 -52 10 -80 3
-27 9 -66 11 -85 15 -89 89 -186 179 -230 l50 -25 730 -2 c637 -2 736 0 774
13 137 48 208 154 227 334 3 36 7 72 9 80 2 8 6 49 10 90 4 41 8 82 10 90 1 8
6 44 10 80 3 36 8 76 10 90 2 14 6 54 10 90 4 36 8 76 10 90 2 14 11 88 20
165 9 77 18 156 20 175 2 19 7 60 10 90 3 30 8 71 10 90 3 19 7 58 10 85 3 28
7 66 10 85 2 19 7 60 10 90 3 30 8 73 12 95 3 22 6 54 8 70 1 17 5 53 9 80 4
28 9 70 11 95 4 43 11 104 20 180 2 19 7 59 10 88 l6 52 -1221 0 -1221 0 7
-62z"/>
</g>
</svg>
